<svg id="Capa_1" data-name="Capa 1" xmlns="http://www.w3.org/2000/svg" viewBox="0 0 564.04 500"><defs><style>.cls-1{fill:#806302;stroke-width:1.5px;}.cls-1,.cls-2{stroke:#000;stroke-miterlimit:10;}.cls-2{fill:#ffc604;stroke-width:3px;}</style></defs><path d="M73.4,93.18C82.29,93.18,89,87.82,89,79.39S82.59,65.9,73.4,65.9H56.07V93.18ZM25.87,40.45H74.32c26.67,0,45.07,13.18,45.07,37.25s-18.55,38.48-45.54,38.48H56.07v31.58H25.87Z"/><path d="M128.27,65.74h30.2v82h-30.2Zm-.92-22.53c0-8.44,6.9-15.33,16.1-15.33s16.09,6.89,16.09,15.33-6.9,15.33-16.09,15.33S127.35,51.64,127.35,43.21Z"/><path d="M231.13,101.92c.31-8.28-7.21-16.56-17.78-16.56-10.12,0-17.48,6.29-19,16.56ZM168,106.52c0-24.07,18.55-42.92,44.92-42.92,25.29,0,43.69,19.16,43.69,42a52.41,52.41,0,0,1-1.08,8.58H195.26c2.14,8.28,9.65,14.26,23.3,14.26A51,51,0,0,0,244.31,122l3.53,21.16c-7.82,4-19.32,6.74-31.73,6.74C182.53,149.9,168,127.52,168,106.52Z"/><path d="M335.37,106.37c0-12-8.43-21.47-20.24-21.47s-20.54,9.66-20.54,21.62S303.17,128,315,128C326.63,128,335.37,118.32,335.37,106.37Zm-71,0c0-24.07,15.79-42.77,37.1-42.77,14.25,0,26.37,8.89,32.5,22.07h1.38V28.18h30.2V147.76h-30.2V127.22h-1.23c-6,13.33-17.48,22.68-32.65,22.68C280.48,149.9,264.39,130.28,264.39,106.37Z"/><path d="M378.9,65.74h3.37l17.17,14.11h.3c5.68-9.66,16.71-16.25,30.2-16.25a41.41,41.41,0,0,1,14.88,2.45l-.31,25.14c-3.07-2.45-7.51-4-13.49-4-12,0-21.92,8.9-22.08,24.53v36h-30Z"/><path d="M521.77,106.37c0-11.35-8.13-20.09-19.32-20.09s-19.62,8.9-19.62,20.24,8.28,20.08,19.47,20.08S521.77,117.56,521.77,106.37Zm-70.52.46c0-24.07,17.32-43.23,41.85-43.23,15.18,0,27.59,6.89,34.8,17.78h.61l18.4-15.64h3.37v82h-30.2V124.3h-1.23c-3.06,14.41-14.56,25.6-31.12,25.6C465.66,149.9,451.25,132.43,451.25,106.83Z"/><path d="M111.56,243.41c8.89,0,15.64-5.37,15.64-13.8s-6.44-13.49-15.64-13.49H94.24v27.29ZM64,190.67h48.44c26.68,0,45.07,13.19,45.07,37.26,0,24.22-18.55,38.47-45.53,38.47H94.24V298H64Z"/><path d="M233.58,256.59c0-11.34-8.12-20.08-19.31-20.08s-19.62,8.89-19.62,20.24c0,11.19,8.27,20.08,19.47,20.08S233.58,267.78,233.58,256.59Zm-70.51.46c0-24.07,17.32-43.23,41.85-43.23,15.17,0,27.59,6.9,34.8,17.78h.61L258.73,216h3.37v82H231.9V274.53h-1.23c-3.06,14.41-14.56,25.6-31.12,25.6C177.48,300.13,163.07,282.65,163.07,257.05Z"/><path d="M342.88,256.75c0-11.35-8.28-20.24-19.62-20.24-11.19,0-19.32,8.74-19.32,20.08s8.28,20.24,19.47,20.24C334.76,276.83,342.88,267.94,342.88,256.75ZM275.58,216H279L297.2,231.6h.61c7.2-10.88,19.47-17.78,34.8-17.78,24.68,0,42,19.16,42,43.23,0,25.6-15.63,43.08-37.71,43.08-16.55,0-27-10.58-29.89-25h-1.38v56.57H275.58Z"/><path d="M445.43,252.15c.31-8.28-7.2-16.56-17.78-16.56-10.12,0-17.48,6.29-19,16.56Zm-63.16,4.6c0-24.07,18.55-42.93,44.92-42.93,25.29,0,43.69,19.16,43.69,42a52.55,52.55,0,0,1-1.07,8.58H409.56c2.15,8.28,9.66,14.26,23.3,14.26a51,51,0,0,0,25.75-6.44l3.53,21.16c-7.82,4-19.32,6.74-31.73,6.74C396.83,300.13,382.27,277.75,382.27,256.75Z"/><path d="M481.76,178.41h30V298h-30Z"/><path d="M88.42,367.11H56.68V340.9h94.59v26.21h-32v81.1H88.42Z"/><path d="M160.61,366.19h30.2v82h-30.2Zm-.92-22.53c0-8.43,6.9-15.33,16.1-15.33s16.1,6.9,16.1,15.33S185,359,175.79,359,159.69,352.09,159.69,343.66Z"/><path d="M202.31,343.66c0-8.43,6.74-15.33,15.94-15.33s15.94,6.9,15.94,15.33S227.45,359,218.25,359,202.31,352.09,202.31,343.66ZM181.92,483l.15-25.3a25.29,25.29,0,0,0,7.82,1.08c8.58,0,13.49-3.38,13.49-11.19V366.19h30.05v82.94c0,24.07-14.11,35.1-40.32,35.1A59.82,59.82,0,0,1,181.92,483Z"/><path d="M305.78,402.37c.31-8.28-7.21-16.55-17.78-16.55-10.12,0-17.48,6.28-19,16.55ZM242.62,407c0-24.07,18.55-42.92,44.92-42.92,25.29,0,43.69,19.16,43.69,42a52.67,52.67,0,0,1-1.07,8.59H269.91c2.14,8.27,9.66,14.25,23.3,14.25A50.94,50.94,0,0,0,319,422.45l3.53,21.16c-7.82,4-19.32,6.75-31.73,6.75C257.18,450.36,242.62,428,242.62,407Z"/><path d="M341.8,366.19h3.37l17.17,14.11h.31c5.67-9.66,16.71-16.25,30.2-16.25a41.4,41.4,0,0,1,14.87,2.45l-.31,25.14c-3.06-2.45-7.51-4-13.49-4-12,0-21.92,8.89-22.07,24.52v36H341.8Z"/><path d="M484.67,406.82c0-11.35-8.12-20.08-19.32-20.08s-19.62,8.89-19.62,20.23c0,11.19,8.28,20.08,19.47,20.08C476.55,427.05,484.67,418,484.67,406.82Zm-70.52.46c0-24.07,17.32-43.23,41.85-43.23,15.18,0,27.6,6.89,34.8,17.78h.62l18.39-15.64h3.37v82H483V424.75h-1.22c-3.07,14.41-14.57,25.61-31.12,25.61C428.56,450.36,414.15,432.88,414.15,407.28Z"/><path class="cls-1" d="M67.34,87.13c8.89,0,15.64-5.37,15.64-13.8S76.54,59.84,67.34,59.84H50V87.13ZM19.82,34.39H68.26c26.67,0,45.07,13.19,45.07,37.25,0,24.23-18.55,38.48-45.53,38.48H50V141.7H19.82Z"/><path class="cls-1" d="M122.21,59.69h30.2v82h-30.2Zm-.92-22.54c0-8.43,6.9-15.33,16.1-15.33s16.1,6.9,16.1,15.33-6.9,15.33-16.1,15.33S121.29,45.58,121.29,37.15Z"/><path class="cls-1" d="M225.07,95.87c.31-8.28-7.2-16.56-17.78-16.56-10.12,0-17.48,6.28-19,16.56Zm-63.16,4.59c0-24.06,18.55-42.92,44.92-42.92,25.3,0,43.69,19.16,43.69,42a52.55,52.55,0,0,1-1.07,8.58H189.2c2.15,8.28,9.66,14.26,23.3,14.26A51.08,51.08,0,0,0,238.26,116l3.52,21.15c-7.81,4-19.31,6.75-31.73,6.75C176.48,143.85,161.91,121.47,161.91,100.46Z"/><path class="cls-1" d="M329.31,100.31c0-12-8.43-21.46-20.23-21.46s-20.55,9.66-20.55,21.61,8.59,21.47,20.39,21.47C320.57,121.93,329.31,112.27,329.31,100.31Zm-71,0c0-24.07,15.79-42.77,37.1-42.77,14.26,0,26.37,8.89,32.5,22.08h1.38V22.13h30.2V141.7h-30.2V121.16h-1.22c-6,13.34-17.48,22.69-32.66,22.69C274.43,143.85,258.33,124.23,258.33,100.31Z"/><path class="cls-1" d="M372.84,59.69h3.37l17.17,14.1h.31c5.67-9.66,16.71-16.25,30.2-16.25A41.62,41.62,0,0,1,438.76,60l-.31,25.14c-3.06-2.45-7.51-4-13.49-4C413,81.15,403,90,402.89,105.68v36H372.84Z"/><path class="cls-1" d="M515.71,100.31c0-11.34-8.12-20.08-19.31-20.08s-19.63,8.89-19.63,20.23,8.28,20.09,19.47,20.09C507.59,120.55,515.71,111.5,515.71,100.31Zm-70.52.46c0-24.07,17.33-43.23,41.85-43.23,15.18,0,27.6,6.9,34.8,17.78h.62l18.39-15.63h3.38v82H514V118.25H512.8c-3.07,14.41-14.56,25.6-31.12,25.6C459.6,143.85,445.19,126.37,445.19,100.77Z"/><path class="cls-1" d="M105.51,237.35c8.89,0,15.63-5.36,15.63-13.79s-6.43-13.49-15.63-13.49H88.18v27.28ZM58,184.62h48.45c26.67,0,45.07,13.18,45.07,37.25,0,24.22-18.55,38.48-45.53,38.48H88.18v31.58H58Z"/><path class="cls-1" d="M227.53,250.54c0-11.35-8.13-20.09-19.32-20.09s-19.62,8.9-19.62,20.24,8.28,20.08,19.47,20.08C219.4,270.77,227.53,261.73,227.53,250.54ZM157,251c0-24.07,17.32-43.23,41.85-43.23,15.18,0,27.6,6.89,34.8,17.78h.61l18.4-15.64H256v82h-30.2V268.47h-1.22c-3.07,14.41-14.57,25.6-31.12,25.6C171.42,294.07,157,276.6,157,251Z"/><path class="cls-1" d="M336.82,250.69c0-11.34-8.27-20.24-19.62-20.24-11.19,0-19.31,8.74-19.31,20.09,0,11.19,8.28,20.23,19.47,20.23S336.82,261.88,336.82,250.69Zm-67.29-40.78h3.37l18.24,15.64h.62c7.2-10.89,19.46-17.78,34.79-17.78,24.69,0,42,19.16,42,43.23,0,25.6-15.64,43.07-37.71,43.07-16.56,0-27-10.57-29.9-25h-1.38v56.56h-30Z"/><path class="cls-1" d="M439.38,246.09c.3-8.28-7.21-16.56-17.79-16.56-10.11,0-17.47,6.29-19,16.56Zm-63.16,4.6c0-24.07,18.55-42.92,44.91-42.92,25.3,0,43.69,19.16,43.69,42a52.67,52.67,0,0,1-1.07,8.59H403.5c2.15,8.27,9.66,14.25,23.31,14.25a51,51,0,0,0,25.75-6.44l3.53,21.16c-7.82,4-19.32,6.74-31.74,6.74C390.78,294.07,376.22,271.69,376.22,250.69Z"/><rect class="cls-1" x="475.7" y="172.35" width="30.05" height="119.58"/><polygon class="cls-1" points="82.36 361.06 50.63 361.06 50.63 334.84 145.22 334.84 145.22 361.06 113.17 361.06 113.17 442.15 82.36 442.15 82.36 361.06"/><path class="cls-1" d="M154.56,360.14h30.2v82h-30.2Zm-.92-22.54c0-8.43,6.9-15.33,16.09-15.33s16.1,6.9,16.1,15.33-6.9,15.33-16.1,15.33S153.64,346,153.64,337.6Z"/><path class="cls-1" d="M196.25,337.6c0-8.43,6.75-15.33,15.94-15.33s15.95,6.9,15.95,15.33-6.75,15.33-15.95,15.33S196.25,346,196.25,337.6ZM175.86,477l.16-25.29a25.53,25.53,0,0,0,7.81,1.07c8.59,0,13.49-3.37,13.49-11.19v-81.4h30.05v82.93c0,24.07-14.1,35.11-40.32,35.11A59.22,59.22,0,0,1,175.86,477Z"/><path class="cls-1" d="M299.73,396.32c.3-8.28-7.21-16.56-17.79-16.56-10.12,0-17.47,6.29-19,16.56Zm-63.17,4.6c0-24.07,18.55-42.93,44.92-42.93,25.3,0,43.69,19.16,43.69,42a52.55,52.55,0,0,1-1.07,8.58H263.85c2.15,8.28,9.66,14.26,23.3,14.26a51,51,0,0,0,25.76-6.44l3.53,21.15c-7.82,4-19.32,6.75-31.74,6.75C251.13,444.3,236.56,421.92,236.56,400.92Z"/><path class="cls-1" d="M335.74,360.14h3.38l17.17,14.1h.3c5.67-9.66,16.71-16.25,30.2-16.25a41.58,41.58,0,0,1,14.87,2.45l-.3,25.15c-3.07-2.46-7.52-4-13.49-4-12,0-21.93,8.89-22.08,24.53v36H335.74Z"/><path class="cls-1" d="M478.62,400.76c0-11.34-8.13-20.08-19.32-20.08s-19.62,8.89-19.62,20.24c0,11.19,8.27,20.08,19.47,20.08S478.62,412,478.62,400.76Zm-70.52.46C408.1,377.15,425.42,358,450,358c15.17,0,27.59,6.9,34.8,17.78h.61l18.4-15.63h3.37v82h-30.2V418.7H475.7c-3.06,14.41-14.56,25.6-31.12,25.6C422.51,444.3,408.1,426.82,408.1,401.22Z"/><path class="cls-2" d="M61.28,81.07c8.9,0,15.64-5.36,15.64-13.79s-6.44-13.5-15.64-13.5H44V81.07ZM13.76,28.34H62.2c26.68,0,45.08,13.18,45.08,37.25,0,24.22-18.55,38.48-45.54,38.48H44v31.58H13.76Z"/><path class="cls-2" d="M116.16,53.63h30.2v82h-30.2Zm-.92-22.53c0-8.44,6.9-15.33,16.09-15.33s16.1,6.89,16.1,15.33-6.9,15.33-16.1,15.33S115.24,39.53,115.24,31.1Z"/><path class="cls-2" d="M219,89.81c.31-8.28-7.21-16.56-17.78-16.56-10.12,0-17.48,6.29-19,16.56Zm-63.16,4.6c0-24.07,18.55-42.93,44.92-42.93,25.29,0,43.69,19.17,43.69,42a52.55,52.55,0,0,1-1.08,8.58H183.15c2.14,8.28,9.65,14.26,23.3,14.26a51,51,0,0,0,25.75-6.44l3.53,21.16c-7.82,4-19.32,6.74-31.74,6.74C170.42,137.79,155.86,115.41,155.86,94.41Z"/><path class="cls-2" d="M323.26,94.26c0-12-8.43-21.47-20.24-21.47s-20.54,9.66-20.54,21.62,8.58,21.46,20.39,21.46C314.52,115.87,323.26,106.21,323.26,94.26Zm-71,0c0-24.07,15.79-42.78,37.1-42.78,14.25,0,26.36,8.9,32.5,22.08h1.38V16.07h30.2V135.65h-30.2V115.1H322c-6,13.34-17.48,22.69-32.65,22.69C268.37,137.79,252.28,118.17,252.28,94.26Z"/><path class="cls-2" d="M366.79,53.63h3.37l17.17,14.1h.3c5.68-9.65,16.71-16.25,30.2-16.25a41.36,41.36,0,0,1,14.87,2.46l-.3,25.14c-3.07-2.45-7.51-4-13.49-4-12,0-21.92,8.89-22.08,24.53v36h-30Z"/><path class="cls-2" d="M509.66,94.26c0-11.35-8.13-20.09-19.32-20.09s-19.62,8.89-19.62,20.24c0,11.19,8.28,20.08,19.47,20.08S509.66,105.45,509.66,94.26Zm-70.52.46c0-24.07,17.32-43.24,41.85-43.24,15.18,0,27.59,6.9,34.8,17.79h.61l18.4-15.64h3.37v82H508V112.19h-1.23c-3.06,14.41-14.56,25.6-31.12,25.6C453.55,137.79,439.14,120.32,439.14,94.72Z"/><path class="cls-2" d="M99.45,231.3c8.89,0,15.64-5.37,15.64-13.8S108.65,204,99.45,204H82.13V231.3ZM51.93,178.56h48.44c26.68,0,45.07,13.19,45.07,37.25,0,24.23-18.55,38.48-45.53,38.48H82.13v31.58H51.93Z"/><path class="cls-2" d="M221.47,244.48c0-11.34-8.12-20.08-19.31-20.08s-19.63,8.89-19.63,20.23,8.28,20.09,19.47,20.09C213.35,264.72,221.47,255.67,221.47,244.48Zm-70.51.46c0-24.07,17.32-43.23,41.85-43.23,15.17,0,27.59,6.9,34.8,17.78h.61l18.39-15.63H250v82h-30.2V262.42h-1.23C215.49,276.83,204,288,187.44,288,165.37,288,151,270.54,151,244.94Z"/><path class="cls-2" d="M330.77,244.63c0-11.34-8.28-20.23-19.62-20.23-11.19,0-19.32,8.74-19.32,20.08,0,11.19,8.28,20.24,19.47,20.24S330.77,255.83,330.77,244.63Zm-67.3-40.77h3.37l18.25,15.63h.61c7.2-10.88,19.47-17.78,34.8-17.78,24.68,0,42,19.16,42,43.23,0,25.6-15.63,43.08-37.71,43.08-16.56,0-27-10.58-29.89-25h-1.38V319.6h-30Z"/><path class="cls-2" d="M433.32,240c.31-8.28-7.2-16.56-17.78-16.56-10.12,0-17.48,6.29-19,16.56Zm-63.16,4.59c0-24.06,18.55-42.92,44.92-42.92,25.29,0,43.69,19.16,43.69,42a52.55,52.55,0,0,1-1.07,8.58H397.45c2.14,8.28,9.66,14.26,23.3,14.26a51,51,0,0,0,25.75-6.44L450,281.27c-7.82,4-19.32,6.75-31.73,6.75C384.72,288,370.16,265.64,370.16,244.63Z"/><path class="cls-2" d="M469.65,166.3h30V285.87h-30Z"/><path class="cls-2" d="M76.31,355H44.57V328.79h94.59V355h-32v81.1H76.31Z"/><path class="cls-2" d="M148.5,354.08h30.2v82H148.5Zm-.92-22.53c0-8.43,6.9-15.33,16.1-15.33s16.1,6.9,16.1,15.33-6.9,15.33-16.1,15.33S147.58,340,147.58,331.55Z"/><path class="cls-2" d="M190.2,331.55c0-8.43,6.74-15.33,15.94-15.33s15.94,6.9,15.94,15.33-6.74,15.33-15.94,15.33S190.2,340,190.2,331.55ZM169.81,470.9l.15-25.3a25.29,25.29,0,0,0,7.82,1.08c8.58,0,13.49-3.38,13.49-11.2v-81.4h30V437c0,24.07-14.11,35.1-40.32,35.1A59.82,59.82,0,0,1,169.81,470.9Z"/><path class="cls-2" d="M293.67,390.26c.31-8.28-7.21-16.55-17.78-16.55-10.12,0-17.48,6.28-19,16.55Zm-63.16,4.6c0-24.07,18.55-42.92,44.92-42.92,25.29,0,43.69,19.16,43.69,42a52.67,52.67,0,0,1-1.08,8.59H257.8c2.14,8.27,9.66,14.25,23.3,14.25a51,51,0,0,0,25.75-6.44l3.53,21.16c-7.82,4-19.32,6.74-31.73,6.74C245.07,438.24,230.51,415.86,230.51,394.86Z"/><path class="cls-2" d="M329.69,354.08h3.37l17.17,14.11h.31c5.67-9.66,16.71-16.25,30.2-16.25a41.4,41.4,0,0,1,14.87,2.45l-.31,25.14c-3.06-2.45-7.51-4-13.49-4-12,0-21.92,8.9-22.07,24.53v36H329.69Z"/><path class="cls-2" d="M472.56,394.71c0-11.35-8.12-20.09-19.32-20.09s-19.62,8.9-19.62,20.24c0,11.19,8.28,20.08,19.47,20.08C464.44,414.94,472.56,405.9,472.56,394.71Zm-70.52.46c0-24.07,17.32-43.23,41.85-43.23,15.18,0,27.6,6.89,34.8,17.78h.61l18.4-15.64h3.37v82h-30.2V412.64h-1.22c-3.07,14.41-14.57,25.6-31.12,25.6C416.45,438.24,402,420.77,402,395.17Z"/></svg>