<?xml version="1.0" encoding="utf-8"?>
<!-- Generator: Adobe Illustrator 24.3.0, SVG Export Plug-In . SVG Version: 6.00 Build 0)  -->
<svg version="1.1" id="Capa_1" xmlns="http://www.w3.org/2000/svg" xmlns:xlink="http://www.w3.org/1999/xlink" x="0px" y="0px"
	 viewBox="0 0 564.04 500" style="enable-background:new 0 0 564.04 500;" xml:space="preserve">
<style type="text/css">
	.st0{fill:#806302;stroke:#000000;stroke-width:1.5;stroke-miterlimit:10;}
	.st1{fill:#FFC604;stroke:#000000;stroke-width:3;stroke-miterlimit:10;}
</style>
<g>
	<g>
		<g>
			<path d="M73.4,93.18c8.89,0,15.64-5.37,15.64-13.8c0-8.43-6.44-13.49-15.64-13.49H56.07v27.29H73.4z M25.87,40.45h48.44
				c26.67,0,45.07,13.18,45.07,37.25c0,24.22-18.55,38.48-45.53,38.48H56.07v31.58h-30.2V40.45z"/>
			<path d="M128.27,65.74h30.2v82.02h-30.2V65.74z M127.35,43.21c0-8.43,6.9-15.33,16.1-15.33c9.2,0,16.1,6.9,16.1,15.33
				s-6.9,15.33-16.1,15.33C134.25,58.54,127.35,51.64,127.35,43.21z"/>
			<path d="M231.13,101.92c0.31-8.28-7.21-16.56-17.78-16.56c-10.12,0-17.48,6.29-19.01,16.56H231.13z M167.97,106.52
				c0-24.07,18.55-42.92,44.92-42.92c25.29,0,43.69,19.16,43.69,42c0,1.99-0.61,6.74-1.07,8.58h-60.25
				c2.15,8.28,9.66,14.26,23.3,14.26c9.51,0,17.78-1.99,25.75-6.44l3.53,21.16c-7.82,3.99-19.32,6.74-31.73,6.74
				C182.53,149.9,167.97,127.52,167.97,106.52z"/>
			<path d="M335.37,106.37c0-11.96-8.43-21.46-20.24-21.46s-20.54,9.66-20.54,21.62c0,11.96,8.58,21.46,20.39,21.46
				C326.63,127.98,335.37,118.32,335.37,106.37z M264.39,106.37c0-24.07,15.79-42.77,37.1-42.77c14.26,0,26.37,8.89,32.5,22.08h1.38
				V28.18h30.2v119.58h-30.2v-20.54h-1.23c-5.98,13.34-17.48,22.69-32.65,22.69C280.48,149.9,264.39,130.28,264.39,106.37z"/>
			<path d="M378.9,65.74h3.37l17.17,14.1h0.31c5.67-9.66,16.71-16.25,30.2-16.25c5.52,0,10.43,0.77,14.87,2.45l-0.31,25.14
				c-3.07-2.45-7.51-3.99-13.49-3.99c-11.96,0-21.92,8.89-22.08,24.53v36.03H378.9V65.74z"/>
			<path d="M521.77,106.37c0-11.34-8.12-20.08-19.32-20.08c-11.19,0-19.62,8.89-19.62,20.24c0,11.19,8.28,20.08,19.47,20.08
				C513.64,126.6,521.77,117.56,521.77,106.37z M451.25,106.83c0-24.07,17.32-43.23,41.85-43.23c15.18,0,27.6,6.9,34.8,17.78h0.61
				l18.4-15.64h3.37v82.02h-30.2V124.3h-1.23c-3.07,14.41-14.56,25.6-31.12,25.6C465.66,149.9,451.25,132.43,451.25,106.83z"/>
			<path d="M111.56,243.41c8.89,0,15.64-5.37,15.64-13.8c0-8.43-6.44-13.49-15.64-13.49H94.24v27.29H111.56z M64.04,190.67h48.44
				c26.67,0,45.07,13.18,45.07,37.25c0,24.22-18.55,38.48-45.53,38.48H94.24v31.58h-30.2V190.67z"/>
			<path d="M233.58,256.59c0-11.34-8.12-20.08-19.32-20.08c-11.19,0-19.62,8.89-19.62,20.24c0,11.19,8.28,20.08,19.47,20.08
				C225.46,276.83,233.58,267.78,233.58,256.59z M163.07,257.05c0-24.07,17.32-43.23,41.85-43.23c15.18,0,27.59,6.9,34.8,17.78h0.61
				l18.4-15.64h3.37v82.02h-30.2v-23.45h-1.23c-3.07,14.41-14.56,25.6-31.12,25.6C177.48,300.13,163.07,282.65,163.07,257.05z"/>
			<path d="M342.88,256.75c0-11.34-8.28-20.24-19.62-20.24c-11.19,0-19.31,8.74-19.31,20.08c0,11.19,8.28,20.24,19.47,20.24
				C334.76,276.83,342.88,267.94,342.88,256.75z M275.58,215.97h3.37l18.24,15.64h0.61c7.2-10.88,19.47-17.78,34.8-17.78
				c24.68,0,42,19.16,42,43.23c0,25.6-15.64,43.08-37.71,43.08c-16.56,0-26.98-10.58-29.89-24.99h-1.38v56.57h-30.05V215.97z"/>
			<path d="M445.43,252.15c0.31-8.28-7.21-16.56-17.78-16.56c-10.12,0-17.48,6.29-19.01,16.56H445.43z M382.27,256.75
				c0-24.07,18.55-42.92,44.92-42.92c25.29,0,43.69,19.16,43.69,42c0,1.99-0.61,6.74-1.07,8.58h-60.25
				c2.15,8.28,9.66,14.26,23.3,14.26c9.51,0,17.78-1.99,25.75-6.44l3.53,21.16c-7.82,3.99-19.32,6.74-31.73,6.74
				C396.83,300.13,382.27,277.75,382.27,256.75z"/>
			<path d="M481.76,178.41h30.05v119.58h-30.05V178.41z"/>
			<path d="M88.42,367.11H56.68V340.9h94.59v26.21h-32.04v81.1H88.42V367.11z"/>
			<path d="M160.61,366.19h30.2v82.02h-30.2V366.19z M159.69,343.66c0-8.43,6.9-15.33,16.1-15.33c9.2,0,16.1,6.9,16.1,15.33
				c0,8.43-6.9,15.33-16.1,15.33C166.59,358.99,159.69,352.09,159.69,343.66z"/>
			<path d="M202.31,343.66c0-8.43,6.75-15.33,15.94-15.33c9.2,0,15.94,6.9,15.94,15.33c0,8.43-6.75,15.33-15.94,15.33
				C209.05,358.99,202.31,352.09,202.31,343.66z M181.92,483.01l0.15-25.29c2.15,0.77,5.21,1.07,7.82,1.07
				c8.59,0,13.49-3.37,13.49-11.19v-81.4h30.05v82.93c0,24.07-14.1,35.11-40.32,35.11C190.04,484.23,185.44,483.77,181.92,483.01z"
				/>
			<path d="M305.78,402.37c0.31-8.28-7.21-16.56-17.78-16.56c-10.12,0-17.48,6.29-19.01,16.56H305.78z M242.62,406.97
				c0-24.07,18.55-42.92,44.92-42.92c25.29,0,43.69,19.16,43.69,42.01c0,1.99-0.61,6.74-1.07,8.58h-60.25
				c2.15,8.28,9.66,14.26,23.3,14.26c9.51,0,17.78-1.99,25.75-6.44l3.53,21.16c-7.82,3.98-19.32,6.75-31.73,6.75
				C257.18,450.36,242.62,427.97,242.62,406.97z"/>
			<path d="M341.8,366.19h3.37l17.17,14.1h0.31c5.67-9.66,16.71-16.25,30.2-16.25c5.52,0,10.43,0.77,14.87,2.45l-0.31,25.14
				c-3.07-2.45-7.51-3.98-13.49-3.98c-11.96,0-21.92,8.89-22.07,24.53v36.03H341.8V366.19z"/>
			<path d="M484.67,406.82c0-11.35-8.13-20.08-19.32-20.08s-19.62,8.89-19.62,20.24c0,11.19,8.28,20.08,19.47,20.08
				C476.55,427.05,484.67,418.01,484.67,406.82z M414.15,407.28c0-24.07,17.32-43.23,41.85-43.23c15.18,0,27.59,6.9,34.8,17.78h0.61
				l18.4-15.64h3.37v82.02h-30.2v-23.45h-1.23c-3.07,14.41-14.56,25.6-31.12,25.6C428.56,450.36,414.15,432.88,414.15,407.28z"/>
		</g>
		<g>
			<path class="st0" d="M67.34,87.13c8.89,0,15.64-5.37,15.64-13.8c0-8.43-6.44-13.49-15.64-13.49H50.02v27.29H67.34z M19.82,34.39
				h48.44c26.67,0,45.07,13.18,45.07,37.25c0,24.22-18.55,38.48-45.53,38.48H50.02v31.58h-30.2V34.39z"/>
			<path class="st0" d="M122.21,59.69h30.2v82.02h-30.2V59.69z M121.29,37.15c0-8.43,6.9-15.33,16.1-15.33
				c9.2,0,16.1,6.9,16.1,15.33s-6.9,15.33-16.1,15.33C128.19,52.48,121.29,45.58,121.29,37.15z"/>
			<path class="st0" d="M225.07,95.87c0.31-8.28-7.21-16.56-17.78-16.56c-10.12,0-17.48,6.29-19.01,16.56H225.07z M161.91,100.46
				c0-24.07,18.55-42.92,44.92-42.92c25.29,0,43.69,19.16,43.69,42c0,1.99-0.61,6.74-1.07,8.58H189.2
				c2.15,8.28,9.66,14.26,23.3,14.26c9.51,0,17.78-1.99,25.75-6.44l3.53,21.16c-7.82,3.99-19.32,6.74-31.73,6.74
				C176.48,143.85,161.91,121.47,161.91,100.46z"/>
			<path class="st0" d="M329.31,100.31c0-11.96-8.43-21.46-20.24-21.46c-11.8,0-20.54,9.66-20.54,21.62
				c0,11.96,8.58,21.46,20.39,21.46C320.57,121.93,329.31,112.27,329.31,100.31z M258.33,100.31c0-24.07,15.79-42.77,37.1-42.77
				c14.26,0,26.37,8.89,32.5,22.08h1.38V22.13h30.2V141.7h-30.2v-20.54h-1.23c-5.98,13.34-17.48,22.69-32.65,22.69
				C274.43,143.85,258.33,124.23,258.33,100.31z"/>
			<path class="st0" d="M372.84,59.69h3.37l17.17,14.1h0.31c5.67-9.66,16.71-16.25,30.2-16.25c5.52,0,10.43,0.77,14.87,2.45
				l-0.31,25.14c-3.07-2.45-7.51-3.99-13.49-3.99c-11.96,0-21.92,8.89-22.08,24.53v36.03h-30.05V59.69z"/>
			<path class="st0" d="M515.71,100.31c0-11.34-8.12-20.08-19.32-20.08c-11.19,0-19.62,8.89-19.62,20.24
				c0,11.19,8.28,20.08,19.47,20.08C507.59,120.55,515.71,111.5,515.71,100.31z M445.19,100.77c0-24.07,17.32-43.23,41.85-43.23
				c15.18,0,27.59,6.9,34.8,17.78h0.61l18.4-15.64h3.37v82.02h-30.2v-23.45h-1.23c-3.07,14.41-14.56,25.6-31.12,25.6
				C459.6,143.85,445.19,126.37,445.19,100.77z"/>
			<path class="st0" d="M105.51,237.35c8.89,0,15.64-5.37,15.64-13.8c0-8.43-6.44-13.49-15.64-13.49H88.18v27.29H105.51z
				 M57.98,184.62h48.44c26.67,0,45.07,13.18,45.07,37.25c0,24.22-18.55,38.48-45.53,38.48H88.18v31.58h-30.2V184.62z"/>
			<path class="st0" d="M227.53,250.54c0-11.34-8.12-20.08-19.32-20.08c-11.19,0-19.62,8.89-19.62,20.24
				c0,11.19,8.28,20.08,19.47,20.08C219.4,270.77,227.53,261.73,227.53,250.54z M157.01,251c0-24.07,17.32-43.23,41.85-43.23
				c15.18,0,27.59,6.9,34.8,17.78h0.61l18.4-15.64h3.37v82.02h-30.2v-23.45h-1.23c-3.07,14.41-14.56,25.6-31.12,25.6
				C171.42,294.07,157.01,276.6,157.01,251z"/>
			<path class="st0" d="M336.82,250.69c0-11.34-8.28-20.24-19.62-20.24c-11.19,0-19.31,8.74-19.31,20.08
				c0,11.19,8.28,20.24,19.47,20.24C328.7,270.77,336.82,261.88,336.82,250.69z M269.53,209.91h3.37l18.24,15.64h0.61
				c7.2-10.88,19.47-17.78,34.8-17.78c24.68,0,42,19.16,42,43.23c0,25.6-15.64,43.08-37.71,43.08c-16.56,0-26.98-10.58-29.89-24.99
				h-1.38v56.57h-30.05V209.91z"/>
			<path class="st0" d="M439.38,246.09c0.31-8.28-7.21-16.56-17.78-16.56c-10.12,0-17.48,6.29-19.01,16.56H439.38z M376.22,250.69
				c0-24.07,18.55-42.92,44.92-42.92c25.29,0,43.69,19.16,43.69,42c0,1.99-0.61,6.74-1.07,8.58H403.5
				c2.15,8.28,9.66,14.26,23.3,14.26c9.51,0,17.78-1.99,25.75-6.44l3.53,21.16c-7.82,3.99-19.32,6.74-31.73,6.74
				C390.78,294.07,376.22,271.69,376.22,250.69z"/>
			<rect x="475.7" y="172.35" class="st0" width="30.05" height="119.58"/>
			<polygon class="st0" points="82.36,361.06 50.63,361.06 50.63,334.84 145.22,334.84 145.22,361.06 113.18,361.06 113.18,442.15 
				82.36,442.15 			"/>
			<path class="st0" d="M154.56,360.14h30.2v82.02h-30.2V360.14z M153.64,337.6c0-8.43,6.9-15.33,16.1-15.33
				c9.2,0,16.1,6.9,16.1,15.33c0,8.43-6.9,15.33-16.1,15.33C160.54,352.93,153.64,346.03,153.64,337.6z"/>
			<path class="st0" d="M196.25,337.6c0-8.43,6.75-15.33,15.94-15.33c9.2,0,15.94,6.9,15.94,15.33c0,8.43-6.75,15.33-15.94,15.33
				C203,352.93,196.25,346.03,196.25,337.6z M175.86,476.95l0.15-25.29c2.15,0.77,5.21,1.07,7.82,1.07
				c8.59,0,13.49-3.37,13.49-11.19v-81.4h30.05v82.93c0,24.07-14.1,35.11-40.32,35.11C183.99,478.18,179.39,477.72,175.86,476.95z"
				/>
			<path class="st0" d="M299.73,396.32c0.31-8.28-7.21-16.56-17.78-16.56c-10.12,0-17.48,6.29-19.01,16.56H299.73z M236.56,400.92
				c0-24.07,18.55-42.92,44.92-42.92c25.29,0,43.69,19.16,43.69,42.01c0,1.99-0.61,6.74-1.07,8.58h-60.25
				c2.15,8.28,9.66,14.26,23.3,14.26c9.51,0,17.78-1.99,25.75-6.44l3.53,21.16c-7.82,3.98-19.32,6.75-31.73,6.75
				C251.13,444.3,236.56,421.92,236.56,400.92z"/>
			<path class="st0" d="M335.74,360.14h3.37l17.17,14.1h0.31c5.67-9.66,16.71-16.25,30.2-16.25c5.52,0,10.43,0.77,14.87,2.45
				l-0.31,25.14c-3.07-2.45-7.51-3.98-13.49-3.98c-11.96,0-21.92,8.89-22.07,24.53v36.03h-30.05V360.14z"/>
			<path class="st0" d="M478.62,400.76c0-11.35-8.13-20.08-19.32-20.08c-11.19,0-19.62,8.89-19.62,20.24
				c0,11.19,8.28,20.08,19.47,20.08C470.49,421,478.62,411.95,478.62,400.76z M408.1,401.22c0-24.07,17.32-43.23,41.85-43.23
				c15.18,0,27.59,6.9,34.8,17.78h0.61l18.4-15.64h3.37v82.02h-30.2V418.7h-1.23c-3.07,14.41-14.56,25.6-31.12,25.6
				C422.51,444.3,408.1,426.82,408.1,401.22z"/>
		</g>
		<g>
			<path class="st1" d="M61.28,81.07c8.89,0,15.64-5.37,15.64-13.8c0-8.43-6.44-13.49-15.64-13.49H43.96v27.29H61.28z M13.76,28.34
				H62.2c26.67,0,45.07,13.18,45.07,37.25c0,24.22-18.55,38.48-45.53,38.48H43.96v31.58h-30.2V28.34z"/>
			<path class="st1" d="M116.16,53.63h30.2v82.02h-30.2V53.63z M115.24,31.1c0-8.43,6.9-15.33,16.1-15.33c9.2,0,16.1,6.9,16.1,15.33
				s-6.9,15.33-16.1,15.33C122.14,46.43,115.24,39.53,115.24,31.1z"/>
			<path class="st1" d="M219.02,89.81c0.31-8.28-7.21-16.56-17.78-16.56c-10.12,0-17.48,6.29-19.01,16.56H219.02z M155.86,94.41
				c0-24.07,18.55-42.92,44.92-42.92c25.29,0,43.69,19.16,43.69,42c0,1.99-0.61,6.74-1.07,8.58h-60.25
				c2.15,8.28,9.66,14.26,23.3,14.26c9.51,0,17.78-1.99,25.75-6.44l3.53,21.16c-7.82,3.99-19.32,6.74-31.73,6.74
				C170.42,137.79,155.86,115.41,155.86,94.41z"/>
			<path class="st1" d="M323.26,94.26c0-11.96-8.43-21.46-20.24-21.46c-11.8,0-20.54,9.66-20.54,21.62
				c0,11.96,8.59,21.46,20.39,21.46C314.52,115.87,323.26,106.21,323.26,94.26z M252.28,94.26c0-24.07,15.79-42.77,37.1-42.77
				c14.26,0,26.37,8.89,32.5,22.08h1.38V16.07h30.2v119.58h-30.2V115.1h-1.23c-5.98,13.34-17.48,22.69-32.65,22.69
				C268.37,137.79,252.28,118.17,252.28,94.26z"/>
			<path class="st1" d="M366.79,53.63h3.37l17.17,14.1h0.31c5.67-9.66,16.71-16.25,30.2-16.25c5.52,0,10.43,0.77,14.87,2.45
				l-0.31,25.14c-3.07-2.45-7.51-3.99-13.49-3.99c-11.96,0-21.92,8.89-22.08,24.53v36.03h-30.05V53.63z"/>
			<path class="st1" d="M509.66,94.26c0-11.34-8.12-20.08-19.32-20.08c-11.19,0-19.62,8.89-19.62,20.24
				c0,11.19,8.28,20.08,19.47,20.08C501.53,114.49,509.66,105.45,509.66,94.26z M439.14,94.72c0-24.07,17.32-43.23,41.85-43.23
				c15.18,0,27.59,6.9,34.8,17.78h0.61l18.4-15.64h3.37v82.02h-30.2v-23.45h-1.23c-3.07,14.41-14.56,25.6-31.12,25.6
				C453.55,137.79,439.14,120.32,439.14,94.72z"/>
			<path class="st1" d="M99.45,231.3c8.89,0,15.64-5.37,15.64-13.8c0-8.43-6.44-13.49-15.64-13.49H82.13v27.29H99.45z M51.93,178.56
				h48.44c26.67,0,45.07,13.18,45.07,37.25c0,24.22-18.55,38.48-45.53,38.48H82.13v31.58h-30.2V178.56z"/>
			<path class="st1" d="M221.47,244.48c0-11.34-8.12-20.08-19.32-20.08c-11.19,0-19.62,8.89-19.62,20.24
				c0,11.19,8.28,20.08,19.47,20.08C213.35,264.72,221.47,255.67,221.47,244.48z M150.96,244.94c0-24.07,17.32-43.23,41.85-43.23
				c15.18,0,27.59,6.9,34.8,17.78h0.61l18.4-15.64h3.37v82.02h-30.2v-23.45h-1.23c-3.07,14.41-14.56,25.6-31.12,25.6
				C165.37,288.02,150.96,270.54,150.96,244.94z"/>
			<path class="st1" d="M330.77,244.63c0-11.34-8.28-20.24-19.62-20.24c-11.19,0-19.32,8.74-19.32,20.08
				c0,11.19,8.28,20.24,19.47,20.24C322.64,264.72,330.77,255.83,330.77,244.63z M263.47,203.86h3.37l18.24,15.64h0.61
				c7.2-10.88,19.47-17.78,34.8-17.78c24.68,0,42,19.16,42,43.23c0,25.6-15.64,43.08-37.71,43.08c-16.56,0-26.98-10.58-29.89-24.99
				h-1.38v56.57h-30.05V203.86z"/>
			<path class="st1" d="M433.32,240.04c0.31-8.28-7.21-16.56-17.78-16.56c-10.12,0-17.48,6.29-19.01,16.56H433.32z M370.16,244.63
				c0-24.07,18.55-42.92,44.92-42.92c25.29,0,43.69,19.16,43.69,42c0,1.99-0.61,6.74-1.07,8.58h-60.25
				c2.15,8.28,9.66,14.26,23.3,14.26c9.51,0,17.78-1.99,25.75-6.44l3.53,21.16c-7.82,3.99-19.32,6.74-31.73,6.74
				C384.72,288.02,370.16,265.64,370.16,244.63z"/>
			<path class="st1" d="M469.65,166.3h30.05v119.58h-30.05V166.3z"/>
			<path class="st1" d="M76.31,355H44.57v-26.21h94.59V355h-32.04v81.1H76.31V355z"/>
			<path class="st1" d="M148.5,354.08h30.2v82.02h-30.2V354.08z M147.58,331.55c0-8.43,6.9-15.33,16.1-15.33
				c9.2,0,16.1,6.9,16.1,15.33c0,8.43-6.9,15.33-16.1,15.33C154.48,346.88,147.58,339.98,147.58,331.55z"/>
			<path class="st1" d="M190.2,331.55c0-8.43,6.75-15.33,15.94-15.33c9.2,0,15.94,6.9,15.94,15.33c0,8.43-6.75,15.33-15.94,15.33
				C196.94,346.88,190.2,339.98,190.2,331.55z M169.81,470.9l0.15-25.29c2.15,0.77,5.21,1.07,7.82,1.07
				c8.59,0,13.49-3.37,13.49-11.19v-81.4h30.05v82.93c0,24.07-14.1,35.11-40.32,35.11C177.93,472.12,173.33,471.66,169.81,470.9z"/>
			<path class="st1" d="M293.67,390.26c0.31-8.28-7.21-16.56-17.78-16.56c-10.12,0-17.48,6.29-19.01,16.56H293.67z M230.51,394.86
				c0-24.07,18.55-42.92,44.92-42.92c25.29,0,43.69,19.16,43.69,42.01c0,1.99-0.61,6.74-1.07,8.58H257.8
				c2.15,8.28,9.66,14.26,23.3,14.26c9.51,0,17.78-1.99,25.75-6.44l3.53,21.16c-7.82,3.98-19.32,6.75-31.73,6.75
				C245.07,438.24,230.51,415.86,230.51,394.86z"/>
			<path class="st1" d="M329.69,354.08h3.37l17.17,14.1h0.31c5.67-9.66,16.71-16.25,30.2-16.25c5.52,0,10.43,0.77,14.87,2.45
				l-0.31,25.14c-3.07-2.45-7.51-3.98-13.49-3.98c-11.96,0-21.92,8.89-22.08,24.53v36.03h-30.05V354.08z"/>
			<path class="st1" d="M472.56,394.71c0-11.35-8.12-20.08-19.32-20.08c-11.19,0-19.62,8.89-19.62,20.24
				c0,11.19,8.28,20.08,19.47,20.08C464.44,414.94,472.56,405.9,472.56,394.71z M402.04,395.17c0-24.07,17.32-43.23,41.85-43.23
				c15.18,0,27.59,6.9,34.8,17.78h0.61l18.4-15.64h3.37v82.02h-30.2v-23.45h-1.23c-3.07,14.41-14.56,25.6-31.12,25.6
				C416.45,438.24,402.04,420.77,402.04,395.17z"/>
		</g>
	</g>
</g>
</svg>
